<?xml version="1.0" standalone="no"?>
<!DOCTYPE svg PUBLIC "-//W3C//DTD SVG 20010904//EN"
 "http://www.w3.org/TR/2001/REC-SVG-20010904/DTD/svg10.dtd">
<svg version="1.0" xmlns="http://www.w3.org/2000/svg"
 width="32.000000pt" height="32.000000pt" viewBox="0 0 32.000000 32.000000"
 preserveAspectRatio="xMidYMid meet">

<g transform="translate(0.000000,32.000000) scale(0.100000,-0.100000)"
fill="#000000" stroke="none">
<path d="M66 301 c-82 -54 -86 -150 -10 -210 30 -24 88 -28 129 -9 24 11 29 8
75 -37 27 -27 53 -46 57 -42 4 4 -15 30 -42 57 -45 46 -48 51 -37 75 19 41 15
99 -9 129 -43 55 -111 71 -163 37z m128 -37 c51 -52 31 -144 -37 -162 -70 -18
-127 22 -127 90 0 86 104 131 164 72z"/>
</g>
</svg>
